<?xml version="1.0" encoding="UTF-8" standalone="no"?>
<svg
   xmlns:dc="http://purl.org/dc/elements/1.1/"
   xmlns:cc="http://creativecommons.org/ns#"
   xmlns:rdf="http://www.w3.org/1999/02/22-rdf-syntax-ns#"
   xmlns:svg="http://www.w3.org/2000/svg"
   xmlns="http://www.w3.org/2000/svg"
   xmlns:sodipodi="http://sodipodi.sourceforge.net/DTD/sodipodi-0.dtd"
   xmlns:inkscape="http://www.inkscape.org/namespaces/inkscape"
   id="Layer_1"
   data-name="Layer 1"
   viewBox="0 0 1062 299.73"
   version="1.1"
   sodipodi:docname="Logo.svg"
   inkscape:export-filename="/home/hugh/Nextcloud/Carbon Certify/Logo-Blue.png"
   inkscape:export-xdpi="300"
   inkscape:export-ydpi="300"
   inkscape:version="1.0.2 (e86c870879, 2021-01-15)">
  <metadata
     id="metadata1124">
    <rdf:RDF>
      <cc:Work
         rdf:about="">
        <dc:format>image/svg+xml</dc:format>
        <dc:type
           rdf:resource="http://purl.org/dc/dcmitype/StillImage" />
        <dc:title />
      </cc:Work>
    </rdf:RDF>
  </metadata>
  <sodipodi:namedview
     pagecolor="#ffffff"
     bordercolor="#666666"
     borderopacity="1"
     objecttolerance="10"
     gridtolerance="10"
     guidetolerance="10"
     inkscape:pageopacity="0"
     inkscape:pageshadow="2"
     inkscape:window-width="1438"
     inkscape:window-height="855"
     id="namedview1122"
     showgrid="false"
     inkscape:snap-global="true"
     inkscape:zoom="0.58725817"
     inkscape:cx="484.32684"
     inkscape:cy="-117.06654"
     inkscape:window-x="0"
     inkscape:window-y="0"
     inkscape:window-maximized="1"
     inkscape:current-layer="Layer_1"
     inkscape:pagecheckerboard="true"
     inkscape:document-rotation="0" />
  <defs
     id="defs995">
    <style
       id="style993">.cls-1,.cls-2,.cls-5{fill:#365574;}.cls-1,.cls-2{stroke:#365574;stroke-miterlimit:10;}.cls-1{stroke-linecap:round;stroke-width:8px;}.cls-2{font-size:70px;font-family:Impact;letter-spacing:0.25em;}.cls-3{letter-spacing:0.27em;}.cls-4{letter-spacing:0.25em;}</style>
  </defs>
  <g
     id="g969"
     inkscape:export-xdpi="300"
     inkscape:export-ydpi="300">
    <path
       id="line997"
       style="fill:#365574;stroke:#365574;stroke-width:8px;stroke-linecap:round;stroke-miterlimit:10"
       d="M 4,209.8 H 1058 Z"
       class="cls-1"
       inkscape:export-filename="/home/hugh/Logo-White.png"
       inkscape:export-xdpi="300"
       inkscape:export-ydpi="300" />
    <line
       class="cls-1"
       x1="158.14731"
       y1="208.00731"
       x2="157.13269"
       y2="43.029945"
       id="line1005"
       inkscape:export-filename="/home/hugh/Logo-White.png"
       inkscape:export-xdpi="300"
       inkscape:export-ydpi="300" />
    <path
       id="line1007"
       style="fill:#365574;stroke:#365574;stroke-width:8px;stroke-linecap:round;stroke-miterlimit:10"
       d="M 59.139999,77 257.14001,5"
       class="cls-1"
       inkscape:export-filename="/home/hugh/Logo-White.png"
       inkscape:export-xdpi="300"
       inkscape:export-ydpi="300" />
    <path
       id="line1009"
       style="fill:#365574;stroke:#365574;stroke-width:8px;stroke-linecap:round;stroke-miterlimit:10"
       d="M 257.14001,5 229.64,67.5"
       class="cls-1"
       sodipodi:nodetypes="cc"
       inkscape:export-filename="/home/hugh/Logo-White.png"
       inkscape:export-xdpi="300"
       inkscape:export-ydpi="300" />
    <path
       id="line1011"
       style="fill:#365574;stroke:#365574;stroke-width:8px;stroke-linecap:round;stroke-miterlimit:10"
       d="M 257.14001,5 283.64,67.5"
       class="cls-1"
       sodipodi:nodetypes="cc"
       inkscape:export-filename="/home/hugh/Logo-White.png"
       inkscape:export-xdpi="300"
       inkscape:export-ydpi="300" />
    <path
       class="cls-1"
       d="M631.14,516.89h0Z"
       transform="translate(-347 -448.89)"
       id="path1013"
       inkscape:export-filename="/home/hugh/Logo-White.png"
       inkscape:export-xdpi="300"
       inkscape:export-ydpi="300" />
    <path
       class="cls-1"
       d="M630.64,516.39c-.37,53.62-53.62,54.37-54,0"
       transform="translate(-347 -448.89)"
       id="path1015"
       inkscape:export-filename="/home/hugh/Logo-White.png"
       inkscape:export-xdpi="300"
       inkscape:export-ydpi="300" />
    <path
       id="line1017"
       style="fill:#365574;stroke:#365574;stroke-width:8px;stroke-linecap:round;stroke-miterlimit:10"
       d="M 59.139999,77 31.64,138.5"
       class="cls-1"
       sodipodi:nodetypes="cc"
       inkscape:export-filename="/home/hugh/Logo-White.png"
       inkscape:export-xdpi="300"
       inkscape:export-ydpi="300" />
    <path
       id="line1019"
       style="fill:#365574;stroke:#365574;stroke-width:8px;stroke-linecap:round;stroke-miterlimit:10"
       d="M 59.139999,77 85.64,138.5"
       class="cls-1"
       sodipodi:nodetypes="cc"
       inkscape:export-filename="/home/hugh/Logo-White.png"
       inkscape:export-xdpi="300"
       inkscape:export-ydpi="300" />
    <path
       class="cls-1"
       d="M434.14,587.89h0Z"
       id="path1021"
       transform="translate(-347 -448.89)"
       inkscape:export-filename="/home/hugh/Logo-White.png"
       inkscape:export-xdpi="300"
       inkscape:export-ydpi="300" />
    <path
       class="cls-1"
       d="m 85.64,138.5 c -0.37,53.62 -53.62,54.37 -54,0"
       id="path1023"
       style="stroke-width:8.00125984;stroke-miterlimit:10;stroke-dasharray:none"
       inkscape:export-filename="/home/hugh/Logo-White.png"
       inkscape:export-xdpi="300"
       inkscape:export-ydpi="300" />
    <path
       class="cls-5"
       d="M506.24,658.44c-1.72,9.49-3.51,19.2-8.34,27.56-2,3.56-4.68,7-5.37,11-.48,2.77,0,5.61,0,8.42s-.71,5.87-2.91,7.63"
       transform="translate(-347 -448.89)"
       id="path1025"
       inkscape:export-filename="/home/hugh/Logo-White.png"
       inkscape:export-xdpi="300"
       inkscape:export-ydpi="300" />
    <path
       class="cls-5"
       d="M504.79,658c-1.35,7.46-2.71,15-5.64,22.08a88.49,88.49,0,0,1-5.42,9.88,19.8,19.8,0,0,0-2.89,11c.13,3.7.88,8.32-2.32,11-1.47,1.25.66,3.36,2.13,2.12,2.64-2.24,3.38-5.84,3.35-9.16,0-2.11-.28-4.22-.15-6.33A14.05,14.05,0,0,1,495.5,693c1.74-3.4,4-6.47,5.6-9.94A65.59,65.59,0,0,0,505,672c1.12-4.33,1.93-8.74,2.72-13.15.35-1.88-2.55-2.69-2.89-.79Z"
       transform="translate(-347 -448.89)"
       id="path1027"
       inkscape:export-filename="/home/hugh/Logo-White.png"
       inkscape:export-xdpi="300"
       inkscape:export-ydpi="300" />
    <path
       class="cls-5"
       d="M505.55,662.78a40,40,0,0,1,3.09,18.14c-.29,4.56-1.36,9.25,0,13.62,1.11,3.66,3.74,6.61,5.79,9.83A33.66,33.66,0,0,1,519.61,723"
       transform="translate(-347 -448.89)"
       id="path1029"
       inkscape:export-filename="/home/hugh/Logo-White.png"
       inkscape:export-xdpi="300"
       inkscape:export-ydpi="300" />
    <path
       class="cls-5"
       d="M504.1,663.18a39.4,39.4,0,0,1,3,12.31c.3,4.23-.39,8.34-.62,12.54a19.14,19.14,0,0,0,2.8,11.48c2.08,3.37,4.56,6.39,6.16,10A32.51,32.51,0,0,1,518.11,723c0,1.93,3,1.93,3,0a35.49,35.49,0,0,0-1.88-12,42.85,42.85,0,0,0-5.75-10.65,28.66,28.66,0,0,1-2.94-4.9,14.74,14.74,0,0,1-1.08-6.09c0-4.36.93-8.63.71-13a41.76,41.76,0,0,0-3.17-14,1.57,1.57,0,0,0-1.85-1,1.51,1.51,0,0,0-1,1.85Z"
       transform="translate(-347 -448.89)"
       id="path1031"
       inkscape:export-filename="/home/hugh/Logo-White.png"
       inkscape:export-xdpi="300"
       inkscape:export-ydpi="300" />
    <path
       class="cls-5"
       d="M506,678.62a32.36,32.36,0,0,0-3.85,6.8,9.29,9.29,0,0,0-.92,5.16,13.3,13.3,0,0,0,1.14,3,30.68,30.68,0,0,1-3.24,30.26"
       transform="translate(-347 -448.89)"
       id="path1033"
       inkscape:export-filename="/home/hugh/Logo-White.png"
       inkscape:export-xdpi="300"
       inkscape:export-ydpi="300" />
    <path
       class="cls-5"
       d="M504.67,677.86a33,33,0,0,0-3.33,5.61,14.25,14.25,0,0,0-1.74,6.23c.06,2.1,1.15,3.84,1.88,5.73A28.1,28.1,0,0,1,503,701a29.34,29.34,0,0,1-5.23,22.06c-1.14,1.56,1.46,3.06,2.59,1.52a32.11,32.11,0,0,0,5.86-22.06,32.85,32.85,0,0,0-1.11-5.72c-.57-1.91-1.48-3.64-2.17-5.5-.8-2.19,0-4.35,1-6.36a33,33,0,0,1,3.33-5.6c1.14-1.56-1.47-3.06-2.59-1.52Z"
       transform="translate(-347 -448.89)"
       id="path1035"
       inkscape:export-filename="/home/hugh/Logo-White.png"
       inkscape:export-xdpi="300"
       inkscape:export-ydpi="300" />
    <path
       class="cls-5"
       d="M505.56,670.27l-.29,5.92a5.52,5.52,0,0,1-.49,2.42,1.91,1.91,0,0,1-2,1.08"
       transform="translate(-347 -448.89)"
       id="path1037"
       inkscape:export-filename="/home/hugh/Logo-White.png"
       inkscape:export-xdpi="300"
       inkscape:export-ydpi="300" />
    <path
       class="cls-5"
       d="m 504.06,670.27 -2.27,5.46 c 0.0343,0.6973 -0.0572,1.39509 -0.27,2.06 v 0.06 c -0.05,0.08 -0.09,0.16 -0.15,0.24 0.16,-0.2 -0.09,0.07 -0.14,0.11 0.12,-0.09 0.11,-0.09 0,0 -0.11,0.09 -0.16,0.09 0,0 -0.18,0 -0.18,0 0,0 -0.18,0 -0.18,0 0,0 -1.96834,-0.6082 -0.8009,2.39945 1.2,2.89 1.15956,0.25987 2.36945,-0.1218 3.17,-1 0.75474,-0.90552 3.17804,-2.04139 3.2,-3.22 0.2,-2.2 -1.77,-4.42 -1.66,-6.63 -0.005,-0.82616 -0.67384,-1.49455 -1.5,-1.5 -0.81956,0.021 -1.47898,0.68044 -1.5,1.5 z"
       transform="translate(-347,-448.89)"
       id="path1039"
       sodipodi:nodetypes="ccccccscccccccccc"
       inkscape:export-filename="/home/hugh/Logo-White.png"
       inkscape:export-xdpi="300"
       inkscape:export-ydpi="300" />
    <path
       class="cls-5"
       d="M509.62,678A68.52,68.52,0,0,0,527,691.42a46.58,46.58,0,0,1,7.21,4.28c4.94,4,7.3,10.25,9.44,16.21"
       transform="translate(-347 -448.89)"
       id="path1041"
       inkscape:export-filename="/home/hugh/Logo-White.png"
       inkscape:export-xdpi="300"
       inkscape:export-ydpi="300" />
    <path
       class="cls-5"
       d="M508.56,679.09A76.37,76.37,0,0,0,528.61,694a22.07,22.07,0,0,1,8.92,7.8,54.48,54.48,0,0,1,4.7,10.55c.64,1.8,3.54,1,2.89-.8a60.79,60.79,0,0,0-4.79-10.93,23.51,23.51,0,0,0-8.65-8.36,124.28,124.28,0,0,1-11.23-6.67,68.15,68.15,0,0,1-9.77-8.58c-1.33-1.41-3.45.72-2.12,2.12Z"
       transform="translate(-347 -448.89)"
       id="path1043"
       inkscape:export-filename="/home/hugh/Logo-White.png"
       inkscape:export-xdpi="300"
       inkscape:export-ydpi="300" />
    <path
       class="cls-5"
       d="M498.79,684.2l-8.38-.9a5.15,5.15,0,0,0-2.41.11,5.24,5.24,0,0,0-2.19,2c-5.64,7.68-10.52,16.22-18.18,21.87-4.18,3.08-9,5.16-13.77,7.21"
       transform="translate(-347 -448.89)"
       id="path1045"
       inkscape:export-filename="/home/hugh/Logo-White.png"
       inkscape:export-xdpi="300"
       inkscape:export-ydpi="300" />
    <path
       class="cls-5"
       d="M498.79,682.7l-6.65-.72c-1.8-.19-3.75-.61-5.4.38-1.49.9-2.46,2.58-3.44,4s-2.16,3.07-3.23,4.6c-4.19,6-8.62,12.11-14.84,16.19a77.91,77.91,0,0,1-12.12,6.06c-1.77.76-.25,3.35,1.51,2.59,7-3,13.64-6.25,19-11.79,5-5.12,8.72-11.23,12.88-17,.51-.71,1.09-1.77,1.92-2.14s2.1-.05,3,0l7.39.8c1.92.21,1.9-2.79,0-3Z"
       transform="translate(-347 -448.89)"
       id="path1047"
       inkscape:export-filename="/home/hugh/Logo-White.png"
       inkscape:export-xdpi="300"
       inkscape:export-ydpi="300" />
    <path
       class="cls-5"
       d="M492.91,698c-1.44-.56-3.1.38-3.92,1.68a12.24,12.24,0,0,0-1.33,4.4,38.64,38.64,0,0,1-19.26,26.35"
       transform="translate(-347 -448.89)"
       id="path1049"
       inkscape:export-filename="/home/hugh/Logo-White.png"
       inkscape:export-xdpi="300"
       inkscape:export-ydpi="300" />
    <path
       class="cls-5"
       d="m 493.09643,696.48276 c -1.80111,-0.48993 -3.51023,0.16995 -4.73643,1.57724 -1.32,1.42 -1.72,3.37 -2.07,5.21 -1.99857,10.99654 -8.85065,20.50495 -18.65,25.88 -1.69,0.93 -0.18,3.52 1.52,2.59 9.16691,-5.08043 15.98526,-13.54235 19,-23.58 0.53,-1.76 0.83,-3.55 1.22,-5.34 0.32,-1.42 0.91643,-4.07724 2.87643,-3.43724 1.96,0.64 2.64,-2.33 0.8,-2.9 z"
       transform="translate(-347,-448.89)"
       id="path1051"
       sodipodi:nodetypes="cccccccscc"
       inkscape:export-filename="/home/hugh/Logo-White.png"
       inkscape:export-xdpi="300"
       inkscape:export-ydpi="300" />
    <path
       class="cls-5"
       d="M516.64,705.59l11,0a7.15,7.15,0,0,1,3,.42,6.36,6.36,0,0,1,2.58,2.56c2.06,3.21,3.4,6.83,5.31,10.13s4.6,6.4,8.23,7.57"
       transform="translate(-347 -448.89)"
       id="path1053"
       inkscape:export-filename="/home/hugh/Logo-White.png"
       inkscape:export-xdpi="300"
       inkscape:export-ydpi="300" />
    <path
       class="cls-5"
       d="M516.64,707.09c3.75,0,7.5-.05,11.25,0a4,4,0,0,1,3.85,1.93,35.58,35.58,0,0,1,2.61,4.72c2.76,5.63,5.66,11.79,12,14,1.83.62,2.62-2.27.8-2.9-6.55-2.24-8.66-10-11.71-15.44a13.75,13.75,0,0,0-2.82-3.86,6.85,6.85,0,0,0-4.54-1.43c-3.82-.07-7.65,0-11.47,0a1.5,1.5,0,0,0,0,3Z"
       transform="translate(-347 -448.89)"
       id="path1055"
       inkscape:export-filename="/home/hugh/Logo-White.png"
       inkscape:export-xdpi="300"
       inkscape:export-ydpi="300" />
    <path
       class="cls-5"
       d="M538.35,701.29c3.78-3.23,9.43-3.46,14.14-1.86s8.69,4.76,12.58,7.87l23.51,18.76"
       transform="translate(-347 -448.89)"
       id="path1057"
       inkscape:export-filename="/home/hugh/Logo-White.png"
       inkscape:export-xdpi="300"
       inkscape:export-ydpi="300" />
    <path
       class="cls-5"
       d="M539.41,702.35c5.37-4.43,13-2,18.2,1.28a106.41,106.41,0,0,1,9.1,6.88l9.63,7.69,11.18,8.92c1.49,1.19,3.63-.92,2.12-2.12l-21.39-17.07c-5.93-4.74-12.09-10.19-20-10.9a15,15,0,0,0-11,3.2c-1.49,1.23.65,3.34,2.12,2.12Z"
       transform="translate(-347 -448.89)"
       id="path1059"
       inkscape:export-filename="/home/hugh/Logo-White.png"
       inkscape:export-xdpi="300"
       inkscape:export-ydpi="300" />
    <path
       class="cls-5"
       d="M481.72,717.89l-9.13,0a4.63,4.63,0,0,0-2.28.39,4.88,4.88,0,0,0-1.8,2.77,41.28,41.28,0,0,1-35.19,26.08"
       transform="translate(-347 -448.89)"
       id="path1061"
       inkscape:export-filename="/home/hugh/Logo-White.png"
       inkscape:export-xdpi="300"
       inkscape:export-ydpi="300" />
    <path
       class="cls-5"
       d="M481.72,716.39l-7.69,0c-2.06,0-4.22-.15-5.64,1.62-1.17,1.45-1.6,3.47-2.39,5.13a38.07,38.07,0,0,1-2.77,4.9A40.72,40.72,0,0,1,445.9,742.5a37.45,37.45,0,0,1-12.58,3.11c-1.91.14-1.93,3.14,0,3a42.86,42.86,0,0,0,35.8-25.13c.42-1,.74-2,1.21-3,.6-1.21,1.52-1.14,2.74-1.14l8.65,0a1.5,1.5,0,0,0,0-3Z"
       transform="translate(-347 -448.89)"
       id="path1063"
       inkscape:export-filename="/home/hugh/Logo-White.png"
       inkscape:export-xdpi="300"
       inkscape:export-ydpi="300" />
    <path
       class="cls-5"
       d="M470.11,704.85c-1.74-3.35-6.07-4.34-9.84-4.32-12.61.09-23.94,7.24-34.5,14.13"
       transform="translate(-347 -448.89)"
       id="path1065"
       inkscape:export-filename="/home/hugh/Logo-White.png"
       inkscape:export-xdpi="300"
       inkscape:export-ydpi="300" />
    <path
       class="cls-5"
       d="M471.41,704.09c-4.07-7.32-15.61-5.28-22.1-3.35-8.82,2.61-16.67,7.64-24.3,12.63-1.61,1-.11,3.65,1.52,2.59,6.93-4.53,14-9.15,21.94-11.81a37.65,37.65,0,0,1,11.8-2.12c3.12,0,6.89.6,8.55,3.57.94,1.69,3.53.18,2.59-1.51Z"
       transform="translate(-347 -448.89)"
       id="path1067"
       inkscape:export-filename="/home/hugh/Logo-White.png"
       inkscape:export-xdpi="300"
       inkscape:export-ydpi="300" />
    <path
       class="cls-5"
       d="M500.92,722.48a3.07,3.07,0,0,1,4.14,1,5.21,5.21,0,0,1,.53,2.5c0,2.49-.41,5,.16,7.46.91,3.94,4.23,6.78,7.37,9.33"
       transform="translate(-347 -448.89)"
       id="path1069"
       inkscape:export-filename="/home/hugh/Logo-White.png"
       inkscape:export-xdpi="300"
       inkscape:export-ydpi="300" />
    <path
       class="cls-5"
       d="M501.68,723.77a1.59,1.59,0,0,1,1.83.19c.72.64.59,1.93.58,2.8,0,2.48-.36,5,.29,7.41,1.1,4.14,4.49,7.09,7.68,9.69a1.56,1.56,0,0,0,2.12,0,1.5,1.5,0,0,0,0-2.12,31,31,0,0,1-5.09-4.83,10.31,10.31,0,0,1-2.13-6.77c0-2.41.7-5.47-.74-7.61a4.64,4.64,0,0,0-6.05-1.35c-1.69.94-.18,3.54,1.51,2.59Z"
       transform="translate(-347 -448.89)"
       id="path1071"
       inkscape:export-filename="/home/hugh/Logo-White.png"
       inkscape:export-xdpi="300"
       inkscape:export-ydpi="300" />
    <path
       class="cls-5"
       d="M501.59,718c-1.45-.12-2.9-.19-4.35-.22a3.15,3.15,0,0,0-1.8.34,3.22,3.22,0,0,0-1.05,1.6,65.23,65.23,0,0,1-8.51,14.89c-2.09,2.75-4.51,5.41-7.68,6.78"
       transform="translate(-347 -448.89)"
       id="path1073"
       inkscape:export-filename="/home/hugh/Logo-White.png"
       inkscape:export-xdpi="300"
       inkscape:export-ydpi="300" />
    <path
       class="cls-5"
       d="M501.59,716.53c-2.73-.21-6.72-1.11-8.24,1.86-.67,1.3-1.15,2.72-1.78,4.05s-1.44,2.88-2.24,4.28a60.27,60.27,0,0,1-5.22,7.77,18.31,18.31,0,0,1-6.67,5.63c-1.75.79-.23,3.38,1.52,2.59,5.2-2.34,8.75-7.63,11.67-12.32a65.86,65.86,0,0,0,4.23-8c.28-.63.54-1.26.81-1.9s.39-1.17,1.19-1.22a34,34,0,0,1,4.73.22c1.92.16,1.91-2.84,0-3Z"
       transform="translate(-347 -448.89)"
       id="path1075"
       inkscape:export-filename="/home/hugh/Logo-White.png"
       inkscape:export-xdpi="300"
       inkscape:export-ydpi="300" />
    <path
       class="cls-5"
       d="M520.24,718c3.15-1.06,6.62.86,8.68,3.46s3.16,5.82,4.79,8.71a24.32,24.32,0,0,0,12.61,10.89"
       transform="translate(-347 -448.89)"
       id="path1077"
       inkscape:export-filename="/home/hugh/Logo-White.png"
       inkscape:export-xdpi="300"
       inkscape:export-ydpi="300" />
    <path
       class="cls-5"
       d="M520.64,719.45c2.81-.85,5.57.94,7.25,3.11,2,2.62,3.06,5.86,4.72,8.7a26,26,0,0,0,13.31,11.24c1.82.68,2.6-2.22.8-2.89-6.14-2.29-10.31-7.13-13.1-12.9-1.43-3-2.87-6.05-5.5-8.15a9.1,9.1,0,0,0-8.27-2c-1.85.56-1.06,3.45.79,2.9Z"
       transform="translate(-347 -448.89)"
       id="path1079"
       inkscape:export-filename="/home/hugh/Logo-White.png"
       inkscape:export-xdpi="300"
       inkscape:export-ydpi="300" />
    <path
       class="cls-5"
       d="M566.65,707.57l0,16a8,8,0,0,0,.23,2.35,8.16,8.16,0,0,0,.91,1.79l4.16,6.74"
       transform="translate(-347 -448.89)"
       id="path1081"
       inkscape:export-filename="/home/hugh/Logo-White.png"
       inkscape:export-xdpi="300"
       inkscape:export-ydpi="300" />
    <path
       class="cls-5"
       d="m 565.15,709.57 v 13 c -0.16019,2.04294 0.30359,4.08637 1.33,5.86 1.37,2.26 2.78,4.5 4.16,6.75 1,1.64 3.61,0.14 2.59,-1.51 l -3.9,-6.33 c -0.57627,-0.77273 -0.97259,-1.66445 -1.16,-2.61 -0.06,-1.04247 -0.06,-2.08753 0,-3.13 v -12.08 c 0,-2 -3,-2 -3,0 z"
       transform="translate(-347,-448.89)"
       id="path1083"
       sodipodi:nodetypes="ccccccccscc"
       inkscape:export-filename="/home/hugh/Logo-White.png"
       inkscape:export-xdpi="300"
       inkscape:export-ydpi="300" />
    <path
       class="cls-5"
       d="M545.25,707.78c2.65.81,4.7,2.89,6.44,5a48.23,48.23,0,0,1,9.1,18c1.11,4.19,1.65,8.54,3.19,12.6"
       transform="translate(-347 -448.89)"
       id="path1085"
       inkscape:export-filename="/home/hugh/Logo-White.png"
       inkscape:export-xdpi="300"
       inkscape:export-ydpi="300" />
    <path
       class="cls-5"
       d="m 541.40767,707.38772 c 3,1 8.51233,5.47228 10.30233,7.90228 1.95366,2.66863 3.62906,5.5302 5,8.54 1.38099,3.08961 2.43991,6.3133 3.16,9.62 0.64653,3.50115 1.52513,6.95543 2.63,10.34 0.66,1.79 3.56,1 2.89,-0.8 -1.34,-3.65 -1.94,-7.48 -2.84,-11.25 -0.83808,-3.51978 -2.0517,-6.93938 -3.62,-10.2 -1.55586,-3.23136 -3.46052,-6.28285 -5.68,-9.1 -2,-2.63 -7.83233,-6.84228 -11.07233,-7.95228 -1.84,-0.6 -2.62,2.29 -0.8,2.9 z"
       transform="translate(-347,-448.89)"
       id="path1087"
       sodipodi:nodetypes="cccccccccccc"
       inkscape:export-filename="/home/hugh/Logo-White.png"
       inkscape:export-xdpi="300"
       inkscape:export-ydpi="300" />
    <path
       class="cls-5"
       d="M460.23,713.1c1,2.6-.52,5.61-2.75,7.3s-5,2.4-7.64,3.36a40.35,40.35,0,0,0-18,13.21"
       transform="translate(-347 -448.89)"
       id="path1089"
       inkscape:export-filename="/home/hugh/Logo-White.png"
       inkscape:export-xdpi="300"
       inkscape:export-ydpi="300" />
    <path
       class="cls-5"
       d="m 458.79,713.5 c 2.46548,2.31962 0.91742,4.15691 -4.21,6.89 -2.91,1.41 -6.11,2.16 -9,3.57 -5.78101,2.79668 -10.84142,6.88539 -14.79,11.95 -1.17,1.51 0.94,3.64 2.13,2.12 4.26802,-5.5377 9.9314,-9.84132 16.41,-12.47 3.24,-1.28 6.81,-2 9.53,-4.33 2.42,-2 3.94,-5.42 2.86,-8.53 -0.63,-1.81 -3.53,-1 -2.89,0.8 z"
       transform="translate(-347,-448.89)"
       id="path1091"
       sodipodi:nodetypes="cccccccccc"
       inkscape:export-filename="/home/hugh/Logo-White.png"
       inkscape:export-xdpi="300"
       inkscape:export-ydpi="300" />
    <path
       class="cls-5"
       d="M504,668.22c-3.56-.37-7.27-.72-10.6.6a26.11,26.11,0,0,0-5.27,3.2,76.23,76.23,0,0,1-21.24,10.39"
       transform="translate(-347 -448.89)"
       id="path1093"
       inkscape:export-filename="/home/hugh/Logo-White.png"
       inkscape:export-xdpi="300"
       inkscape:export-ydpi="300" />
    <path
       class="cls-5"
       d="m 506,666.72 c -3.36,-0.35 -8.87,-0.66 -12.16,0.36 -3.29,1.02 -5.88,3.32 -8.7,5.15 -5.78815,3.76565 -12.06707,6.71668 -18.66,8.77 -1.84,0.57 -1.05,3.47 0.8,2.89 6.40746,-1.98233 12.53413,-4.77849 18.23,-8.32 2.73,-1.7 5.29,-4.06 8.28,-5.28 3.22,-1.31 8.84,-0.89 12.2,-0.54 1.92,0.2 1.91,-2.81 0,-3 z"
       transform="translate(-347,-448.89)"
       id="path1095"
       sodipodi:nodetypes="cscccccscc"
       inkscape:export-filename="/home/hugh/Logo-White.png"
       inkscape:export-xdpi="300"
       inkscape:export-ydpi="300" />
    <path
       class="cls-5"
       d="M510.19,671.52c1.33-.87,3.18-.27,4.34.82a24.79,24.79,0,0,1,2.76,3.86,16.62,16.62,0,0,0,9.87,6.1,42,42,0,0,0,11.8.64"
       transform="translate(-347 -448.89)"
       id="path1097"
       inkscape:export-filename="/home/hugh/Logo-White.png"
       inkscape:export-xdpi="300"
       inkscape:export-ydpi="300" />
    <path
       class="cls-5"
       d="m 509,672.82 c 2.37,-1.32 6.24,3.06 7.27,4.44 1.5071,1.98088 3.44632,3.59176 5.67,4.71 5.28,2.69 11.28,2.75 17.07,2.47 1.92,-0.1 1.93,-3.1 0,-3 -6,0.29 -12.41,0.32 -17.52,-3.24 -2.31,-1.6 -3.37,-3.91 -5.06,-6 -1.69,-2.09 -6.45,-3.32 -8.94,-1.93 -1.69,0.93 -0.18,3.53 1.51,2.59 z"
       transform="translate(-347,-448.89)"
       id="path1099"
       sodipodi:nodetypes="ccccccsccc"
       inkscape:export-filename="/home/hugh/Logo-White.png"
       inkscape:export-xdpi="300"
       inkscape:export-ydpi="300" />
    <path
       class="cls-5"
       d="M516.62,673.81a46.89,46.89,0,0,1,23.34,3,92.31,92.31,0,0,1,9.46,4.68"
       transform="translate(-347 -448.89)"
       id="path1101"
       inkscape:export-filename="/home/hugh/Logo-White.png"
       inkscape:export-xdpi="300"
       inkscape:export-ydpi="300" />
    <path
       class="cls-5"
       d="M516.62,675.31a46.33,46.33,0,0,1,16.63.93c5.5,1.35,10.46,3.88,15.41,6.56,1.7.92,3.21-1.67,1.51-2.59-5.17-2.8-10.38-5.45-16.12-6.86a48.5,48.5,0,0,0-17.43-1c-1.9.24-1.92,3.24,0,3Z"
       transform="translate(-347 -448.89)"
       id="path1103"
       inkscape:export-filename="/home/hugh/Logo-White.png"
       inkscape:export-xdpi="300"
       inkscape:export-ydpi="300" />
    <path
       class="cls-5"
       d="M472.76,680.11c-3.79.95-7.27-2.18-11-3.4-4-1.32-8.41-.37-12.1,1.6s-6.76,4.91-9.78,7.79l-8,7.69"
       transform="translate(-347 -448.89)"
       id="path1105"
       inkscape:export-filename="/home/hugh/Logo-White.png"
       inkscape:export-xdpi="300"
       inkscape:export-ydpi="300" />
    <path
       class="cls-5"
       d="M472.36,678.66c-1.85.4-3.63-.36-5.27-1.16a34.11,34.11,0,0,0-5.31-2.37,16.78,16.78,0,0,0-11.34,1.16,35.69,35.69,0,0,0-9.71,7c-3.35,3.12-6.63,6.32-9.94,9.48-1.39,1.33.73,3.45,2.13,2.12,3.2-3.06,6.38-6.15,9.61-9.18,2.82-2.65,5.84-5.29,9.45-6.81a13.35,13.35,0,0,1,10.88-.12c3.33,1.53,6.47,3.65,10.3,2.81,1.88-.41,1.08-3.3-.8-2.89Z"
       transform="translate(-347 -448.89)"
       id="path1107"
       inkscape:export-filename="/home/hugh/Logo-White.png"
       inkscape:export-xdpi="300"
       inkscape:export-ydpi="300" />
    <path
       class="cls-5"
       d="M460.62,676.45c.21,2.72.38,5.61-.89,8-1.9,3.6-6.38,5-8.92,8.19"
       transform="translate(-347 -448.89)"
       id="path1109"
       inkscape:export-filename="/home/hugh/Logo-White.png"
       inkscape:export-xdpi="300"
       inkscape:export-ydpi="300" />
    <path
       class="cls-5"
       d="M459.12,676.45a20,20,0,0,1,0,5.35,7.36,7.36,0,0,1-2.25,4c-2.23,2.12-5.11,3.44-7.08,5.84a1.56,1.56,0,0,0,0,2.13,1.53,1.53,0,0,0,2.12,0c2.11-2.58,5.29-3.91,7.55-6.32,2.88-3.06,3-7,2.7-11a1.5,1.5,0,0,0-3,0Z"
       transform="translate(-347 -448.89)"
       id="path1111"
       inkscape:export-filename="/home/hugh/Logo-White.png"
       inkscape:export-xdpi="300"
       inkscape:export-ydpi="300" />
    <path
       class="cls-5"
       d="M542.48,676.93c7.52-2.19,15.67-4.37,23-1.69s12,9.33,16.2,15.76"
       transform="translate(-347 -448.89)"
       id="path1113"
       inkscape:export-filename="/home/hugh/Logo-White.png"
       inkscape:export-xdpi="300"
       inkscape:export-ydpi="300" />
    <path
       class="cls-5"
       d="m 542.59455,679.31907 c 7.43,-2.15 16.27545,-5.60907 23.74545,-2.11907 6.28,2.94 10.4,8.92 14.08,14.56 1.05,1.61 3.65,0.11 2.59,-1.51 -4,-6.14 -8.59,-12.72 -15.5,-15.8 -8.22,-3.66 -17.48545,-0.41093 -25.70545,1.94907 -1.85,0.54 -1.07,3.43 0.79,2.89 z"
       transform="translate(-347,-448.89)"
       id="path1115"
       sodipodi:nodetypes="cccccccc"
       inkscape:export-filename="/home/hugh/Logo-White.png"
       inkscape:export-xdpi="300"
       inkscape:export-ydpi="300" />
    <path
       class="cls-5"
       d="M559.33,673.62c-.33,3.55,1.26,7,3.44,9.85s4.94,5.12,7.43,7.66a54,54,0,0,1,10.48,15.2"
       transform="translate(-347 -448.89)"
       id="path1117"
       inkscape:export-filename="/home/hugh/Logo-White.png"
       inkscape:export-xdpi="300"
       inkscape:export-ydpi="300" />
    <path
       class="cls-5"
       d="m 557.83,675.62 c -0.51,7.2 5,10.43 9.72,15 4.93313,4.70281 8.94516,10.28506 11.83,16.46 0.82,1.75 3.4,0.23 2.59,-1.51 -2.71968,-5.87536 -6.44197,-11.23208 -11,-15.83 -4.43,-4.45 -10.62,-7.12 -10.12,-14.13 0.13,-1.92 -2.87,-1.91 -3,0 z"
       transform="translate(-347,-448.89)"
       id="path1119"
       sodipodi:nodetypes="cccccccc"
       inkscape:export-filename="/home/hugh/Logo-White.png"
       inkscape:export-xdpi="300"
       inkscape:export-ydpi="300" />
    <text
       xml:space="preserve"
       style="font-style:normal;font-variant:normal;font-weight:normal;font-stretch:normal;font-size:85.3333px;line-height:1.25;font-family:'Droid Sans Regular';-inkscape-font-specification:'Droid Sans Regular, ';letter-spacing:0px;fill:#365574;fill-opacity:1"
       x="294.09839"
       y="156.58112"
       id="text1133"
       inkscape:export-filename="/home/hugh/Logo-White.png"
       inkscape:export-xdpi="300"
       inkscape:export-ydpi="300"><tspan
         sodipodi:role="line"
         id="tspan1131"
         x="294.09839"
         y="156.58112"
         style="font-size:85.3333px">CARBON CERTIFY</tspan></text>
  </g>
</svg>
